M48
; DRILL file {KiCad 9.0.2} date 2025-07-13T14:40:45-0700
; FORMAT={-:-/ absolute / metric / decimal}
; #@! TF.CreationDate,2025-07-13T14:40:45-07:00
; #@! TF.GenerationSoftware,Kicad,Pcbnew,9.0.2
; #@! TF.FileFunction,NonPlated,1,2,NPTH
FMAT,2
METRIC
; #@! TA.AperFunction,NonPlated,NPTH,ComponentDrill
T1C1.600
; #@! TA.AperFunction,NonPlated,NPTH,ComponentDrill
T2C1.750
; #@! TA.AperFunction,NonPlated,NPTH,ComponentDrill
T3C2.100
; #@! TA.AperFunction,NonPlated,NPTH,ComponentDrill
T4C3.000
; #@! TA.AperFunction,NonPlated,NPTH,ComponentDrill
T5C3.048
; #@! TA.AperFunction,NonPlated,NPTH,ComponentDrill
T6C3.200
; #@! TA.AperFunction,NonPlated,NPTH,ComponentDrill
T7C3.988
%
G90
G05
T2
X52.07Y-73.819
X52.07Y-92.869
X54.451Y-169.069
X56.833Y-111.919
X59.214Y-130.969
X62.23Y-73.819
X62.23Y-92.869
X63.976Y-150.019
X64.611Y-169.069
X66.993Y-111.919
X69.374Y-130.969
X71.12Y-73.819
X71.12Y-92.869
X74.136Y-150.019
X75.883Y-169.069
X80.645Y-111.919
X81.28Y-73.819
X81.28Y-92.869
X85.408Y-130.969
X86.043Y-169.069
X90.17Y-73.819
X90.17Y-92.869
X90.805Y-111.919
X94.933Y-150.019
X94.933Y-169.069
X95.568Y-130.969
X99.695Y-111.919
X100.33Y-73.819
X100.33Y-92.869
X104.458Y-130.969
X105.093Y-150.019
X105.093Y-169.069
X109.22Y-73.819
X109.22Y-92.869
X109.855Y-111.919
X113.983Y-150.019
X114.618Y-130.969
X116.364Y-169.069
X118.745Y-111.919
X119.38Y-73.819
X119.38Y-92.869
X123.508Y-130.969
X124.143Y-150.019
X126.524Y-169.069
X128.27Y-73.819
X128.27Y-92.869
X128.905Y-111.919
X133.033Y-150.019
X133.668Y-130.969
X137.795Y-111.919
X138.43Y-73.819
X138.43Y-92.869
X142.558Y-130.969
X143.193Y-150.019
X147.32Y-73.819
X147.32Y-92.869
X147.955Y-111.919
X152.083Y-150.019
X152.718Y-130.969
X156.845Y-111.919
X157.48Y-73.819
X157.48Y-92.869
X161.608Y-130.969
X162.243Y-150.019
X166.37Y-73.819
X166.37Y-92.869
X167.005Y-111.919
X171.133Y-150.019
X171.768Y-130.969
X175.895Y-111.919
X176.53Y-73.819
X176.53Y-92.869
X180.658Y-130.969
X181.293Y-150.019
X185.42Y-73.819
X185.42Y-92.869
X186.055Y-111.919
X187.801Y-169.069
X190.183Y-150.019
X190.818Y-130.969
X194.945Y-111.919
X195.58Y-73.819
X195.58Y-92.869
X197.961Y-169.069
X199.708Y-130.969
X200.343Y-150.019
X204.47Y-73.819
X204.47Y-92.869
X205.105Y-111.919
X209.233Y-150.019
X209.868Y-130.969
X213.995Y-111.919
X214.63Y-73.819
X214.63Y-92.869
X218.758Y-130.969
X219.393Y-150.019
X223.52Y-73.819
X223.52Y-92.869
X224.155Y-111.919
X228.283Y-150.019
X228.918Y-130.969
X233.045Y-111.919
X233.68Y-73.819
X233.68Y-92.869
X237.808Y-130.969
X238.443Y-150.019
X242.57Y-73.819
X242.57Y-92.869
X243.205Y-111.919
X247.333Y-150.019
X247.968Y-130.969
X252.095Y-111.919
X252.73Y-73.819
X252.73Y-92.869
X256.858Y-130.969
X256.858Y-169.069
X257.493Y-150.019
X261.62Y-73.819
X261.62Y-92.869
X262.255Y-111.919
X266.383Y-150.019
X267.018Y-130.969
X267.018Y-169.069
X271.145Y-111.919
X271.78Y-73.819
X271.78Y-92.869
X275.908Y-130.969
X275.908Y-169.069
X276.543Y-150.019
X280.67Y-73.819
X280.67Y-92.869
X281.305Y-111.919
X286.068Y-130.969
X286.068Y-169.069
X290.195Y-111.919
X290.83Y-73.819
X290.83Y-92.869
X297.339Y-169.069
X300.355Y-111.919
X302.101Y-150.019
X306.864Y-130.969
X307.499Y-169.069
X309.245Y-92.869
X312.261Y-150.019
X314.008Y-111.919
X317.024Y-130.969
X319.405Y-92.869
X323.533Y-73.819
X323.533Y-169.069
X324.168Y-111.919
X333.693Y-73.819
X333.693Y-169.069
X342.583Y-73.819
X342.583Y-92.869
X342.583Y-111.919
X342.583Y-150.019
X342.583Y-169.069
X352.743Y-73.819
X352.743Y-92.869
X352.743Y-111.919
X352.743Y-150.019
X352.743Y-169.069
X361.633Y-92.869
X361.633Y-111.919
X361.633Y-130.969
X361.633Y-150.019
X361.633Y-169.069
X371.793Y-92.869
X371.793Y-111.919
X371.793Y-130.969
X371.793Y-150.019
X371.793Y-169.069
T3
X366.963Y-71.438
T4
X53.34Y-71.279
X53.34Y-90.329
X55.721Y-166.529
X58.103Y-109.379
X59.69Y-68.739
X59.69Y-87.789
X60.484Y-128.429
X62.071Y-163.989
X64.453Y-106.839
X65.246Y-147.479
X66.834Y-125.889
X71.596Y-144.939
X72.39Y-71.279
X72.39Y-90.329
X77.153Y-166.529
X78.74Y-68.739
X78.74Y-87.789
X81.915Y-109.379
X83.503Y-163.989
X86.678Y-128.429
X88.265Y-106.839
X91.44Y-71.279
X91.44Y-90.329
X93.028Y-125.889
X96.203Y-147.479
X96.203Y-166.529
X97.79Y-68.739
X97.79Y-87.789
X100.965Y-109.379
X102.553Y-144.939
X102.553Y-163.989
X105.728Y-128.429
X107.315Y-106.839
X110.49Y-71.279
X110.49Y-90.329
X112.078Y-125.889
X115.253Y-147.479
X116.84Y-68.739
X116.84Y-87.789
X117.634Y-166.529
X120.015Y-109.379
X121.603Y-144.939
X123.984Y-163.989
X124.778Y-128.429
X126.365Y-106.839
X129.54Y-71.279
X129.54Y-90.329
X131.128Y-125.889
X134.303Y-147.479
X135.89Y-68.739
X135.89Y-87.789
X139.065Y-109.379
X140.653Y-144.939
X143.828Y-128.429
X145.415Y-106.839
X148.59Y-71.279
X148.59Y-90.329
X150.178Y-125.889
X153.353Y-147.479
X154.94Y-68.739
X154.94Y-87.789
X158.115Y-109.379
X159.703Y-144.939
X162.878Y-128.429
X164.465Y-106.839
X167.64Y-71.279
X167.64Y-90.329
X169.228Y-125.889
X172.403Y-147.479
X173.99Y-68.739
X173.99Y-87.789
X177.165Y-109.379
X178.753Y-144.939
X181.928Y-128.429
X183.515Y-106.839
X186.69Y-71.279
X186.69Y-90.329
X188.278Y-125.889
X189.071Y-166.529
X191.453Y-147.479
X193.04Y-68.739
X193.04Y-87.789
X195.421Y-163.989
X196.215Y-109.379
X197.803Y-144.939
X200.978Y-128.429
X202.565Y-106.839
X205.74Y-71.279
X205.74Y-90.329
X207.328Y-125.889
X210.503Y-147.479
X212.09Y-68.739
X212.09Y-87.789
X215.265Y-109.379
X216.853Y-144.939
X220.028Y-128.429
X221.615Y-106.839
X224.79Y-71.279
X224.79Y-90.329
X226.378Y-125.889
X229.553Y-147.479
X231.14Y-68.739
X231.14Y-87.789
X234.315Y-109.379
X235.903Y-144.939
X239.078Y-128.429
X240.665Y-106.839
X243.84Y-71.279
X243.84Y-90.329
X245.428Y-125.889
X248.603Y-147.479
X250.19Y-68.739
X250.19Y-87.789
X253.365Y-109.379
X254.953Y-144.939
X258.128Y-128.429
X258.128Y-166.529
X259.715Y-106.839
X262.89Y-71.279
X262.89Y-90.329
X264.478Y-125.889
X264.478Y-163.989
X267.653Y-147.479
X269.24Y-68.739
X269.24Y-87.789
X272.415Y-109.379
X274.003Y-144.939
X277.178Y-128.429
X277.178Y-166.529
X278.765Y-106.839
X281.94Y-71.279
X281.94Y-90.329
X283.528Y-125.889
X283.528Y-163.989
X288.29Y-68.739
X288.29Y-87.789
X291.465Y-109.379
X297.815Y-106.839
X298.609Y-166.529
X303.371Y-147.479
X304.959Y-163.989
X308.134Y-128.429
X309.721Y-144.939
X310.515Y-90.329
X314.484Y-125.889
X315.278Y-109.379
X316.865Y-87.789
X321.628Y-106.839
X324.803Y-71.279
X324.803Y-166.529
X331.153Y-68.739
X331.153Y-163.989
X343.853Y-71.279
X343.853Y-90.329
X343.853Y-109.379
X343.853Y-147.479
X343.853Y-166.529
X350.203Y-68.739
X350.203Y-87.789
X350.203Y-106.839
X350.203Y-144.939
X350.203Y-163.989
X362.903Y-90.329
X362.903Y-109.379
X362.903Y-128.429
X362.903Y-147.479
X362.903Y-166.529
X369.253Y-87.789
X369.253Y-106.839
X369.253Y-125.889
X369.253Y-144.939
X369.253Y-163.989
T5
X57.118Y-143.034
X80.994Y-143.034
X142.882Y-162.084
X242.881Y-162.084
X295.243Y-143.034
X300.006Y-123.984
X302.387Y-85.884
X319.119Y-143.034
X323.882Y-123.984
X326.263Y-85.884
T6
X159.05Y-168.719
X229.05Y-168.719
T7
X57.118Y-158.274
X57.15Y-73.819
X57.15Y-92.869
X59.531Y-169.069
X61.913Y-111.919
X64.294Y-130.969
X69.056Y-150.019
X76.2Y-73.819
X76.2Y-92.869
X80.963Y-169.069
X80.994Y-158.274
X85.725Y-111.919
X90.488Y-130.969
X95.25Y-73.819
X95.25Y-92.869
X100.013Y-150.019
X100.013Y-169.069
X104.775Y-111.919
X109.538Y-130.969
X114.3Y-73.819
X114.3Y-92.869
X119.063Y-150.019
X121.444Y-169.069
X123.825Y-111.919
X128.588Y-130.969
X133.35Y-73.819
X133.35Y-92.869
X138.113Y-150.019
X142.875Y-111.919
X142.882Y-177.324
X147.638Y-130.969
X152.4Y-73.819
X152.4Y-92.869
X157.163Y-150.019
X161.925Y-111.919
X166.688Y-130.969
X171.45Y-73.819
X171.45Y-92.869
X176.213Y-150.019
X180.975Y-111.919
X185.738Y-130.969
X190.5Y-73.819
X190.5Y-92.869
X192.881Y-169.069
X195.263Y-150.019
X200.025Y-111.919
X204.788Y-130.969
X209.55Y-73.819
X209.55Y-92.869
X214.313Y-150.019
X219.075Y-111.919
X223.838Y-130.969
X228.6Y-73.819
X228.6Y-92.869
X233.363Y-150.019
X238.125Y-111.919
X242.881Y-177.324
X242.888Y-130.969
X247.65Y-73.819
X247.65Y-92.869
X252.413Y-150.019
X257.175Y-111.919
X261.938Y-130.969
X261.938Y-169.069
X266.7Y-73.819
X266.7Y-92.869
X271.463Y-150.019
X276.225Y-111.919
X280.988Y-130.969
X280.988Y-169.069
X285.75Y-73.819
X285.75Y-92.869
X295.243Y-158.274
X295.275Y-111.919
X300.006Y-139.224
X302.387Y-101.124
X302.419Y-169.069
X307.181Y-150.019
X311.944Y-130.969
X314.325Y-92.869
X319.088Y-111.919
X319.119Y-158.274
X323.882Y-139.224
X326.263Y-101.124
X328.613Y-73.819
X328.613Y-169.069
X347.663Y-73.819
X347.663Y-92.869
X347.663Y-111.919
X347.663Y-150.019
X347.663Y-169.069
X366.713Y-92.869
X366.713Y-111.919
X366.713Y-130.969
X366.713Y-150.019
X366.713Y-169.069
T1
X362.163Y-71.438G85X362.763Y-71.438
G05
M30
