M48
; DRILL file {KiCad 9.0.2} date 2025-07-13T14:40:45-0700
; FORMAT={-:-/ absolute / metric / decimal}
; #@! TF.CreationDate,2025-07-13T14:40:45-07:00
; #@! TF.GenerationSoftware,Kicad,Pcbnew,9.0.2
; #@! TF.FileFunction,Plated,1,2,PTH
FMAT,2
METRIC
; #@! TA.AperFunction,Plated,PTH,ViaDrill
T1C0.300
; #@! TA.AperFunction,Plated,PTH,ComponentDrill
T2C1.000
; #@! TA.AperFunction,Plated,PTH,ComponentDrill
T3C1.092
; #@! TA.AperFunction,Plated,PTH,ComponentDrill
T4C1.500
%
G90
G05
T1
X85.13Y-86.916
X88.106Y-73.819
X95.25Y-106.561
X95.845Y-163.711
X100.013Y-125.016
X104.775Y-87.511
X107.156Y-73.819
X109.538Y-144.661
X114.241Y-106.72
X116.681Y-163.711
X119.004Y-125.77
X123.825Y-86.916
X126.206Y-73.819
X128.529Y-144.82
X133.887Y-106.72
X138.649Y-125.77
X142.875Y-86.916
X145.256Y-73.819
X148.174Y-144.82
X152.371Y-105.936
X157.163Y-125.016
X161.925Y-86.916
X164.306Y-73.819
X166.658Y-144.036
X171.391Y-106.124
X176.154Y-125.174
X180.975Y-86.916
X182.761Y-163.711
X183.356Y-73.819
X185.679Y-144.224
X190.5Y-105.966
X195.204Y-125.174
X204.788Y-144.283
X219.075Y-125.016
X219.373Y-87.809
X221.515Y-73.548
X228.541Y-106.72
X229.791Y-143.47
X233.304Y-125.77
X238.125Y-87.511
X240.506Y-73.819
X242.888Y-144.283
X247.591Y-106.72
X252.413Y-125.233
X253.008Y-162.52
X257.175Y-86.916
X259.556Y-73.819
X262.474Y-144.82
X266.642Y-106.124
X271.999Y-125.77
X273.249Y-162.52
X276.225Y-87.511
X278.606Y-73.819
X286.287Y-106.72
X295.275Y-164.306
X301.23Y-144.067
X301.914Y-127.617
X305.396Y-87.511
X310.099Y-106.72
X318.492Y-165.497
X321.469Y-73.819
X338.079Y-106.72
X338.079Y-144.82
X338.079Y-163.87
X338.138Y-87.511
X340.519Y-73.819
X346.472Y-102.984
X354.807Y-132.755
X356.592Y-83.939
X356.592Y-119.658
X356.592Y-159.544
X357.188Y-88.106
X359.569Y-92.869
X361.479Y-107.528
X371.475Y-142.28
X374.452Y-125.016
T2
X359.463Y-68.938
X359.463Y-71.438
X359.463Y-73.938
X373.963Y-68.938
X373.963Y-73.938
T3
X340.836Y-122.779
X340.836Y-138.019
X343.376Y-122.779
X343.376Y-138.019
X345.916Y-122.779
X345.916Y-130.399
X345.916Y-132.939
X345.916Y-135.479
X345.916Y-138.019
X348.456Y-122.779
X348.456Y-138.019
X350.996Y-122.779
X350.996Y-138.019
X353.536Y-122.779
X353.536Y-138.019
X356.076Y-122.779
X356.076Y-138.019
X358.616Y-122.779
X358.616Y-138.019
X361.156Y-122.779
X361.156Y-138.019
X363.696Y-122.779
X363.696Y-138.019
X366.236Y-122.779
X366.236Y-138.019
X368.776Y-122.779
X368.776Y-138.019
T4
X366.313Y-65.838G85X367.613Y-65.838
G05
X366.313Y-77.038G85X367.613Y-77.038
G05
M30
