%TF.GenerationSoftware,KiCad,Pcbnew,9.0.2*%
%TF.CreationDate,2025-07-13T14:40:43-07:00*%
%TF.ProjectId,Kicad Project,4b696361-6420-4507-926f-6a6563742e6b,rev?*%
%TF.SameCoordinates,Original*%
%TF.FileFunction,Paste,Bot*%
%TF.FilePolarity,Positive*%
%FSLAX46Y46*%
G04 Gerber Fmt 4.6, Leading zero omitted, Abs format (unit mm)*
G04 Created by KiCad (PCBNEW 9.0.2) date 2025-07-13 14:40:43*
%MOMM*%
%LPD*%
G01*
G04 APERTURE LIST*
G04 Aperture macros list*
%AMRoundRect*
0 Rectangle with rounded corners*
0 $1 Rounding radius*
0 $2 $3 $4 $5 $6 $7 $8 $9 X,Y pos of 4 corners*
0 Add a 4 corners polygon primitive as box body*
4,1,4,$2,$3,$4,$5,$6,$7,$8,$9,$2,$3,0*
0 Add four circle primitives for the rounded corners*
1,1,$1+$1,$2,$3*
1,1,$1+$1,$4,$5*
1,1,$1+$1,$6,$7*
1,1,$1+$1,$8,$9*
0 Add four rect primitives between the rounded corners*
20,1,$1+$1,$2,$3,$4,$5,0*
20,1,$1+$1,$4,$5,$6,$7,0*
20,1,$1+$1,$6,$7,$8,$9,0*
20,1,$1+$1,$8,$9,$2,$3,0*%
G04 Aperture macros list end*
%ADD10R,2.550000X2.500000*%
%ADD11RoundRect,0.225000X0.375000X-0.225000X0.375000X0.225000X-0.375000X0.225000X-0.375000X-0.225000X0*%
%ADD12RoundRect,0.225000X0.225000X0.375000X-0.225000X0.375000X-0.225000X-0.375000X0.225000X-0.375000X0*%
G04 APERTURE END LIST*
D10*
%TO.C,MX42*%
X140552660Y-128428828D03*
X153479660Y-125888828D03*
%TD*%
%TO.C,MX23*%
X221515160Y-90328828D03*
X234442160Y-87788828D03*
%TD*%
%TO.C,MX27*%
X78640160Y-109378828D03*
X91567160Y-106838828D03*
%TD*%
%TO.C,MX33*%
X192940160Y-109378828D03*
X205867160Y-106838828D03*
%TD*%
%TO.C,MX29*%
X116740160Y-109378828D03*
X129667160Y-106838828D03*
%TD*%
%TO.C,MX25*%
X259615160Y-90328828D03*
X272542160Y-87788828D03*
%TD*%
%TO.C,MX39*%
X83402660Y-128428828D03*
X96329660Y-125888828D03*
%TD*%
%TO.C,MX36*%
X250090160Y-109378828D03*
X263017160Y-106838828D03*
%TD*%
D11*
%TO.C,D54*%
X183356410Y-158812578D03*
X183356410Y-155512578D03*
%TD*%
%TO.C,D51*%
X126206410Y-158812578D03*
X126206410Y-155512578D03*
%TD*%
D10*
%TO.C,MX57*%
X226277660Y-147478828D03*
X239204660Y-144938828D03*
%TD*%
%TO.C,MX73*%
X321527660Y-166528828D03*
X334454660Y-163988828D03*
%TD*%
%TO.C,MX76*%
X52446410Y-166528828D03*
X65373410Y-163988828D03*
%TD*%
D11*
%TO.C,D59*%
X278606410Y-158812578D03*
X278606410Y-155512578D03*
%TD*%
D10*
%TO.C,MX13*%
X278665160Y-71278828D03*
X291592160Y-68738828D03*
%TD*%
%TO.C,MX16*%
X88165160Y-90328828D03*
X101092160Y-87788828D03*
%TD*%
%TO.C,MX53*%
X150077660Y-147478828D03*
X163004660Y-144938828D03*
%TD*%
%TO.C,MX59*%
X264377660Y-147478828D03*
X277304660Y-144938828D03*
%TD*%
D11*
%TO.C,D56*%
X221456410Y-158812578D03*
X221456410Y-155512578D03*
%TD*%
D10*
%TO.C,MX80*%
X312002660Y-109378828D03*
X324929660Y-106838828D03*
%TD*%
%TO.C,MX82*%
X307240160Y-90328828D03*
X320167160Y-87788828D03*
%TD*%
%TO.C,MX6*%
X145315160Y-71278828D03*
X158242160Y-68738828D03*
%TD*%
%TO.C,MX72*%
X340577660Y-147478828D03*
X353504660Y-144938828D03*
%TD*%
%TO.C,MX54*%
X169127660Y-147478828D03*
X182054660Y-144938828D03*
%TD*%
D11*
%TO.C,D52*%
X145256410Y-158812578D03*
X145256410Y-155512578D03*
%TD*%
D10*
%TO.C,MX51*%
X111977660Y-147478828D03*
X124904660Y-144938828D03*
%TD*%
%TO.C,MX74*%
X340577660Y-166528828D03*
X353504660Y-163988828D03*
%TD*%
%TO.C,MX35*%
X231040160Y-109378828D03*
X243967160Y-106838828D03*
%TD*%
%TO.C,MX63*%
X273902660Y-166528828D03*
X286829660Y-163988828D03*
%TD*%
D11*
%TO.C,D53*%
X164306410Y-158812578D03*
X164306410Y-155512578D03*
%TD*%
D10*
%TO.C,MX22*%
X202465160Y-90328828D03*
X215392160Y-87788828D03*
%TD*%
%TO.C,MX46*%
X216752660Y-128428828D03*
X229679660Y-125888828D03*
%TD*%
D11*
%TO.C,D85*%
X314325160Y-158812578D03*
X314325160Y-155512578D03*
%TD*%
D10*
%TO.C,MX12*%
X259615160Y-71278828D03*
X272542160Y-68738828D03*
%TD*%
%TO.C,MX9*%
X202465160Y-71278828D03*
X215392160Y-68738828D03*
%TD*%
%TO.C,MX64*%
X321527660Y-71278828D03*
X334454660Y-68738828D03*
%TD*%
%TO.C,MX30*%
X135790160Y-109378828D03*
X148717160Y-106838828D03*
%TD*%
%TO.C,MX14*%
X50065160Y-90328828D03*
X62992160Y-87788828D03*
%TD*%
%TO.C,MX8*%
X183415160Y-71278828D03*
X196342160Y-68738828D03*
%TD*%
%TO.C,MX45*%
X197702660Y-128428828D03*
X210629660Y-125888828D03*
%TD*%
%TO.C,MX20*%
X164365160Y-90328828D03*
X177292160Y-87788828D03*
%TD*%
%TO.C,MX65*%
X340577660Y-71278828D03*
X353504660Y-68738828D03*
%TD*%
%TO.C,MX78*%
X295333910Y-166528828D03*
X308260910Y-163988828D03*
%TD*%
D11*
%TO.C,D84*%
X76200160Y-158812578D03*
X76200160Y-155512578D03*
%TD*%
D10*
%TO.C,MX34*%
X211990160Y-109378828D03*
X224917160Y-106838828D03*
%TD*%
%TO.C,MX84*%
X61971410Y-147478828D03*
X74898410Y-144938828D03*
%TD*%
%TO.C,MX52*%
X131027660Y-147478828D03*
X143954660Y-144938828D03*
%TD*%
%TO.C,MX61*%
X92927660Y-166528828D03*
X105854660Y-163988828D03*
%TD*%
D11*
%TO.C,D55*%
X202406410Y-158812578D03*
X202406410Y-155512578D03*
%TD*%
D10*
%TO.C,MX7*%
X164365160Y-71278828D03*
X177292160Y-68738828D03*
%TD*%
%TO.C,MX40*%
X102452660Y-128428828D03*
X115379660Y-125888828D03*
%TD*%
%TO.C,MX43*%
X159602660Y-128428828D03*
X172529660Y-125888828D03*
%TD*%
%TO.C,MX28*%
X97690160Y-109378828D03*
X110617160Y-106838828D03*
%TD*%
%TO.C,MX66*%
X340577660Y-90328828D03*
X353504660Y-87788828D03*
%TD*%
%TO.C,MX68*%
X340577660Y-109378828D03*
X353504660Y-106838828D03*
%TD*%
D11*
%TO.C,D72*%
X354806410Y-158812578D03*
X354806410Y-155512578D03*
%TD*%
%TO.C,D58*%
X259556410Y-158812578D03*
X259556410Y-155512578D03*
%TD*%
D10*
%TO.C,MX67*%
X359627660Y-90328828D03*
X372554660Y-87788828D03*
%TD*%
%TO.C,MX32*%
X173890160Y-109378828D03*
X186817160Y-106838828D03*
%TD*%
%TO.C,MX58*%
X245327660Y-147478828D03*
X258254660Y-144938828D03*
%TD*%
%TO.C,MX38*%
X288190160Y-109378828D03*
X301117160Y-106838828D03*
%TD*%
%TO.C,MX49*%
X273902660Y-128428828D03*
X286829660Y-125888828D03*
%TD*%
%TO.C,MX75*%
X359627660Y-166528828D03*
X372554660Y-163988828D03*
%TD*%
%TO.C,MX18*%
X126265160Y-90328828D03*
X139192160Y-87788828D03*
%TD*%
%TO.C,MX21*%
X183415160Y-90328828D03*
X196342160Y-87788828D03*
%TD*%
%TO.C,MX11*%
X240565160Y-71278828D03*
X253492160Y-68738828D03*
%TD*%
%TO.C,MX81*%
X57208910Y-128428828D03*
X70135910Y-125888828D03*
%TD*%
%TO.C,MX24*%
X240565160Y-90328828D03*
X253492160Y-87788828D03*
%TD*%
%TO.C,MX79*%
X54827660Y-109378828D03*
X67754660Y-106838828D03*
%TD*%
%TO.C,MX3*%
X88165160Y-71278828D03*
X101092160Y-68738828D03*
%TD*%
D11*
%TO.C,D71*%
X373856410Y-158812578D03*
X373856410Y-155512578D03*
%TD*%
D10*
%TO.C,MX70*%
X359627660Y-128428828D03*
X372554660Y-125888828D03*
%TD*%
%TO.C,MX15*%
X69115160Y-90328828D03*
X82042160Y-87788828D03*
%TD*%
D11*
%TO.C,D50*%
X107156410Y-158812578D03*
X107156410Y-155512578D03*
%TD*%
D10*
%TO.C,MX19*%
X145315160Y-90328828D03*
X158242160Y-87788828D03*
%TD*%
%TO.C,MX83*%
X304858910Y-128428828D03*
X317785910Y-125888828D03*
%TD*%
%TO.C,MX60*%
X73877660Y-166528828D03*
X86804660Y-163988828D03*
%TD*%
%TO.C,MX69*%
X359627660Y-109378828D03*
X372554660Y-106838828D03*
%TD*%
%TO.C,MX47*%
X235802660Y-128428828D03*
X248729660Y-125888828D03*
%TD*%
%TO.C,MX56*%
X207227660Y-147478828D03*
X220154660Y-144938828D03*
%TD*%
%TO.C,MX10*%
X221515160Y-71278828D03*
X234442160Y-68738828D03*
%TD*%
%TO.C,MX50*%
X92927660Y-147478828D03*
X105854660Y-144938828D03*
%TD*%
%TO.C,MX86*%
X185796410Y-166528828D03*
X198723410Y-163988828D03*
%TD*%
%TO.C,MX48*%
X254852660Y-128428828D03*
X267779660Y-125888828D03*
%TD*%
%TO.C,MX5*%
X126265160Y-71278828D03*
X139192160Y-68738828D03*
%TD*%
%TO.C,MX41*%
X121502660Y-128428828D03*
X134429660Y-125888828D03*
%TD*%
%TO.C,MX85*%
X300096410Y-147478828D03*
X313023410Y-144938828D03*
%TD*%
%TO.C,MX4*%
X107215160Y-71278828D03*
X120142160Y-68738828D03*
%TD*%
%TO.C,MX62*%
X254852660Y-166528828D03*
X267779660Y-163988828D03*
%TD*%
%TO.C,MX26*%
X278665160Y-90328828D03*
X291592160Y-87788828D03*
%TD*%
%TO.C,MX1*%
X50065160Y-71278828D03*
X62992160Y-68738828D03*
%TD*%
D12*
%TO.C,D88*%
X358837660Y-85725078D03*
X355537660Y-85725078D03*
%TD*%
D10*
%TO.C,MX17*%
X107215160Y-90328828D03*
X120142160Y-87788828D03*
%TD*%
%TO.C,MX44*%
X178652660Y-128428828D03*
X191579660Y-125888828D03*
%TD*%
%TO.C,MX71*%
X359627660Y-147478828D03*
X372554660Y-144938828D03*
%TD*%
D11*
%TO.C,D57*%
X240506410Y-158812578D03*
X240506410Y-155512578D03*
%TD*%
D10*
%TO.C,MX2*%
X69115160Y-71278828D03*
X82042160Y-68738828D03*
%TD*%
%TO.C,MX31*%
X154840160Y-109378828D03*
X167767160Y-106838828D03*
%TD*%
%TO.C,MX37*%
X269140160Y-109378828D03*
X282067160Y-106838828D03*
%TD*%
%TO.C,MX55*%
X188177660Y-147478828D03*
X201104660Y-144938828D03*
%TD*%
%TO.C,MX77*%
X114358910Y-166528828D03*
X127285910Y-163988828D03*
%TD*%
D11*
%TO.C,D67*%
X373856544Y-101203319D03*
X373856544Y-97903319D03*
%TD*%
%TO.C,D87*%
X373856410Y-82612578D03*
X373856410Y-79312578D03*
%TD*%
%TO.C,D3*%
X102393964Y-82153242D03*
X102393964Y-78853242D03*
%TD*%
%TO.C,D83*%
X319087560Y-139303303D03*
X319087560Y-136003303D03*
%TD*%
%TO.C,D15*%
X83344044Y-101203319D03*
X83344044Y-97903319D03*
%TD*%
%TO.C,D23*%
X235744044Y-101203319D03*
X235744044Y-97903319D03*
%TD*%
%TO.C,D44*%
X192881310Y-139303303D03*
X192881310Y-136003303D03*
%TD*%
%TO.C,D28*%
X111918910Y-120253287D03*
X111918910Y-116953287D03*
%TD*%
%TO.C,D40*%
X116681310Y-139303303D03*
X116681310Y-136003303D03*
%TD*%
%TO.C,D43*%
X173831310Y-139303303D03*
X173831310Y-136003303D03*
%TD*%
%TO.C,D61*%
X107156410Y-177403335D03*
X107156410Y-174103335D03*
%TD*%
%TO.C,D37*%
X283368910Y-120253287D03*
X283368910Y-116953287D03*
%TD*%
%TO.C,D16*%
X102394044Y-101203319D03*
X102394044Y-97903319D03*
%TD*%
%TO.C,D81*%
X71437560Y-139303303D03*
X71437560Y-136003303D03*
%TD*%
%TO.C,D78*%
X309562660Y-177403335D03*
X309562660Y-174103335D03*
%TD*%
%TO.C,D63*%
X288131410Y-177403335D03*
X288131410Y-174103335D03*
%TD*%
%TO.C,D1*%
X64293948Y-82153242D03*
X64293948Y-78853242D03*
%TD*%
%TO.C,D64*%
X335756676Y-82153242D03*
X335756676Y-78853242D03*
%TD*%
%TO.C,D24*%
X254794044Y-101203319D03*
X254794044Y-97903319D03*
%TD*%
%TO.C,D6*%
X159543964Y-82153242D03*
X159543964Y-78853242D03*
%TD*%
%TO.C,D4*%
X121443964Y-82153242D03*
X121443964Y-78853242D03*
%TD*%
%TO.C,D12*%
X273843964Y-82153242D03*
X273843964Y-78853242D03*
%TD*%
%TO.C,D42*%
X154781310Y-139303303D03*
X154781310Y-136003303D03*
%TD*%
%TO.C,D45*%
X211931310Y-139303303D03*
X211931310Y-136003303D03*
%TD*%
%TO.C,D32*%
X188118910Y-120253287D03*
X188118910Y-116953287D03*
%TD*%
%TO.C,D34*%
X226218910Y-120253287D03*
X226218910Y-116953287D03*
%TD*%
%TO.C,D46*%
X230981310Y-139303303D03*
X230981310Y-136003303D03*
%TD*%
%TO.C,D33*%
X207168910Y-120253287D03*
X207168910Y-116953287D03*
%TD*%
%TO.C,D73*%
X335756410Y-177403335D03*
X335756410Y-174103335D03*
%TD*%
%TO.C,D10*%
X235743964Y-82153242D03*
X235743964Y-78853242D03*
%TD*%
%TO.C,D60*%
X88106410Y-177403335D03*
X88106410Y-174103335D03*
%TD*%
%TO.C,D25*%
X273844044Y-101203319D03*
X273844044Y-97903319D03*
%TD*%
%TO.C,D30*%
X150018910Y-120253287D03*
X150018910Y-116953287D03*
%TD*%
%TO.C,D49*%
X288131310Y-139303303D03*
X288131310Y-136003303D03*
%TD*%
%TO.C,D69*%
X373856410Y-120253287D03*
X373856410Y-116953287D03*
%TD*%
%TO.C,D13*%
X292893964Y-82153242D03*
X292893964Y-78853242D03*
%TD*%
%TO.C,D2*%
X83343964Y-82153242D03*
X83343964Y-78853242D03*
%TD*%
%TO.C,D62*%
X269081410Y-177403335D03*
X269081410Y-174103335D03*
%TD*%
%TO.C,D29*%
X130968910Y-120253287D03*
X130968910Y-116953287D03*
%TD*%
%TO.C,D39*%
X97631310Y-139303303D03*
X97631310Y-136003303D03*
%TD*%
%TO.C,D11*%
X254793964Y-82153242D03*
X254793964Y-78853242D03*
%TD*%
%TO.C,D70*%
X373856410Y-139762578D03*
X373856410Y-136462578D03*
%TD*%
%TO.C,D75*%
X373856410Y-177403335D03*
X373856410Y-174103335D03*
%TD*%
%TO.C,D22*%
X216694044Y-101203319D03*
X216694044Y-97903319D03*
%TD*%
%TO.C,D5*%
X140493964Y-82153242D03*
X140493964Y-78853242D03*
%TD*%
%TO.C,D38*%
X302418910Y-120253287D03*
X302418910Y-116953287D03*
%TD*%
%TO.C,D68*%
X354806410Y-120253287D03*
X354806410Y-116953287D03*
%TD*%
%TO.C,D36*%
X264318910Y-120253287D03*
X264318910Y-116953287D03*
%TD*%
%TO.C,D7*%
X178593964Y-82153242D03*
X178593964Y-78853242D03*
%TD*%
%TO.C,D86*%
X200025160Y-177403335D03*
X200025160Y-174103335D03*
%TD*%
%TO.C,D27*%
X92868910Y-120253287D03*
X92868910Y-116953287D03*
%TD*%
%TO.C,D35*%
X245268910Y-120253287D03*
X245268910Y-116953287D03*
%TD*%
%TO.C,D8*%
X197643964Y-82153242D03*
X197643964Y-78853242D03*
%TD*%
%TO.C,D17*%
X121444044Y-101203319D03*
X121444044Y-97903319D03*
%TD*%
%TO.C,D80*%
X326231410Y-120253287D03*
X326231410Y-116953287D03*
%TD*%
%TO.C,D31*%
X169068910Y-120253287D03*
X169068910Y-116953287D03*
%TD*%
%TO.C,D26*%
X292894044Y-101203319D03*
X292894044Y-97903319D03*
%TD*%
%TO.C,D77*%
X128587660Y-177403335D03*
X128587660Y-174103335D03*
%TD*%
%TO.C,D48*%
X269081310Y-139303303D03*
X269081310Y-136003303D03*
%TD*%
%TO.C,D20*%
X178594044Y-101203319D03*
X178594044Y-97903319D03*
%TD*%
%TO.C,D14*%
X64293804Y-101203319D03*
X64293804Y-97903319D03*
%TD*%
%TO.C,D47*%
X250031310Y-139303303D03*
X250031310Y-136003303D03*
%TD*%
%TO.C,D65*%
X354806692Y-82153242D03*
X354806692Y-78853242D03*
%TD*%
%TO.C,D66*%
X354806544Y-101203319D03*
X354806544Y-97903319D03*
%TD*%
%TO.C,D74*%
X354806410Y-177403335D03*
X354806410Y-174103335D03*
%TD*%
%TO.C,D76*%
X66675160Y-177403335D03*
X66675160Y-174103335D03*
%TD*%
%TO.C,D82*%
X321469044Y-101203319D03*
X321469044Y-97903319D03*
%TD*%
%TO.C,D18*%
X140494044Y-101203319D03*
X140494044Y-97903319D03*
%TD*%
%TO.C,D9*%
X216693964Y-82153242D03*
X216693964Y-78853242D03*
%TD*%
%TO.C,D79*%
X69056410Y-120253287D03*
X69056410Y-116953287D03*
%TD*%
%TO.C,D21*%
X197644044Y-101203319D03*
X197644044Y-97903319D03*
%TD*%
%TO.C,D19*%
X159544044Y-101203319D03*
X159544044Y-97903319D03*
%TD*%
%TO.C,D41*%
X135731310Y-139303303D03*
X135731310Y-136003303D03*
%TD*%
M02*
